# xmcd
#
# Track frame offsets:
#	150
#	18050
#	34588
#	52750
#	64126
#	87155
#	104340
#	129738
#	152149
#	170712
#	189476
#	209823
#	225088
#	243736
#	256877
#	275779
#	288350
#	305644
#
# Disc length: 4159
#
# Revision: 1
# Processed by: cddbd v1.5.1PL0 Copyright (c) Steve Scherf et al.
# Submitted via: FreeRIP 2.35 
# Normalized: r0:TDELIM( - )
#
DISCID=fd103d12
DTITLE=The Blues Album
DYEAR=2003
DGENRE=Blues
TTITLE0=Muddy Waters - I'm Your Hoochie Coochie Man
TTITLE1=Stevie Ray Vaughan - Pride And Joy
TTITLE2=B.B. King - The Thrill Is Gone
TTITLE3=Robert Johnson - Cross Road Blues
TTITLE4=Johnny Winter - Highway 61 Revisited
TTITLE5=Koko Taylor - Voodoo Woman
TTITLE6=John Lee Hooker and Santana - The Healer
TTITLE7=Keb Mo - Dangerous Mood
TTITLE8=Robert Cray - Smoking Gun
TTITLE9=Janis Joplin - One Good Man
TTITLE10=Buddy Guy - Damn Right, I've Got The Blues
TTITLE11=The Fabulous Thunderbirds - Tuff Enuff
TTITLE12=Bobby Blue Bland - Stormy Monday Blues
TTITLE13=Elmore James - Dust My Broom
TTITLE14=Electric Flag - Killing Floor
TTITLE15=Memphis Minnie - Me And My Chauffeur Blues
TTITLE16=Fleetwood Mac - Need Your Love So Bad
TTITLE17=Eric Clapton and Jimmy page - Choker
EXTD=YEAR: 2003
EXTT0=
EXTT1=
EXTT2=
EXTT3=
EXTT4=
EXTT5=
EXTT6=
EXTT7=
EXTT8=
EXTT9=
EXTT10=
EXTT11=
EXTT12=
EXTT13=
EXTT14=
EXTT15=
EXTT16=
EXTT17=
PLAYORDER=
